<?xml version="1.0" encoding="UTF-8" standalone="no"?>
<!DOCTYPE svg PUBLIC "-//W3C//DTD SVG 1.1//EN"
 "http://www.w3.org/Graphics/SVG/1.1/DTD/svg11.dtd">
<!-- Generated by graphviz version 2.38.0 (20140413.2041)
 -->
<!-- Title: snakemake_dag Pages: 1 -->
<svg width="868pt" height="764pt"
 viewBox="0.00 0.00 868.00 764.00" xmlns="http://www.w3.org/2000/svg" xmlns:xlink="http://www.w3.org/1999/xlink">
<g id="graph0" class="graph" transform="scale(1 1) rotate(0) translate(4 760)">
<title>snakemake_dag</title>
<polygon fill="white" stroke="none" points="-4,4 -4,-760 864,-760 864,4 -4,4"/>
<!-- 0 -->
<g id="node1" class="node"><title>0</title>
<path fill="none" stroke="#b6d856" stroke-width="2" d="M468,-36C468,-36 438,-36 438,-36 432,-36 426,-30 426,-24 426,-24 426,-12 426,-12 426,-6 432,-0 438,-0 438,-0 468,-0 468,-0 474,-0 480,-6 480,-12 480,-12 480,-24 480,-24 480,-30 474,-36 468,-36"/>
<text text-anchor="middle" x="453" y="-15.5" font-family="sans" font-size="10.00">all</text>
</g>
<!-- 1 -->
<g id="node2" class="node"><title>1</title>
<path fill="none" stroke="#d87d56" stroke-width="2" d="M488.5,-252C488.5,-252 447.5,-252 447.5,-252 441.5,-252 435.5,-246 435.5,-240 435.5,-240 435.5,-228 435.5,-228 435.5,-222 441.5,-216 447.5,-216 447.5,-216 488.5,-216 488.5,-216 494.5,-216 500.5,-222 500.5,-228 500.5,-228 500.5,-240 500.5,-240 500.5,-246 494.5,-252 488.5,-252"/>
<text text-anchor="middle" x="468" y="-231.5" font-family="sans" font-size="10.00">clustering</text>
</g>
<!-- 1&#45;&gt;0 -->
<g id="edge1" class="edge"><title>1&#45;&gt;0</title>
<path fill="none" stroke="grey" stroke-width="2" d="M470.843,-215.871C472.416,-205.519 474.208,-192.04 475,-180 478.11,-132.705 467.662,-78.1444 460.113,-46.2247"/>
<polygon fill="grey" stroke="grey" stroke-width="2" points="463.464,-45.1927 457.688,-36.3109 456.664,-46.8562 463.464,-45.1927"/>
</g>
<!-- 12 -->
<g id="node13" class="node"><title>12</title>
<path fill="none" stroke="#d8a456" stroke-width="2" d="M454,-180C454,-180 390,-180 390,-180 384,-180 378,-174 378,-168 378,-168 378,-156 378,-156 378,-150 384,-144 390,-144 390,-144 454,-144 454,-144 460,-144 466,-150 466,-156 466,-156 466,-168 466,-168 466,-174 460,-180 454,-180"/>
<text text-anchor="middle" x="422" y="-159.5" font-family="sans" font-size="10.00">geneset_index</text>
</g>
<!-- 1&#45;&gt;12 -->
<g id="edge34" class="edge"><title>1&#45;&gt;12</title>
<path fill="none" stroke="grey" stroke-width="2" d="M456.629,-215.697C451.282,-207.559 444.796,-197.689 438.889,-188.701"/>
<polygon fill="grey" stroke="grey" stroke-width="2" points="441.657,-186.539 433.24,-180.104 435.807,-190.384 441.657,-186.539"/>
</g>
<!-- 2 -->
<g id="node3" class="node"><title>2</title>
<path fill="none" stroke="#d8cb56" stroke-width="2" d="M705.5,-396C705.5,-396 664.5,-396 664.5,-396 658.5,-396 652.5,-390 652.5,-384 652.5,-384 652.5,-372 652.5,-372 652.5,-366 658.5,-360 664.5,-360 664.5,-360 705.5,-360 705.5,-360 711.5,-360 717.5,-366 717.5,-372 717.5,-372 717.5,-384 717.5,-384 717.5,-390 711.5,-396 705.5,-396"/>
<text text-anchor="middle" x="685" y="-375.5" font-family="sans" font-size="10.00">prediction</text>
</g>
<!-- 2&#45;&gt;0 -->
<g id="edge2" class="edge"><title>2&#45;&gt;0</title>
<path fill="none" stroke="grey" stroke-width="2" d="M689.654,-359.658C696.375,-333.049 708,-280.453 708,-235 708,-235 708,-235 708,-161 708,-120.031 713.512,-100.416 684,-72 656.654,-45.6708 548.724,-29.7623 490.579,-22.9309"/>
<polygon fill="grey" stroke="grey" stroke-width="2" points="490.665,-19.418 480.333,-21.7604 489.871,-26.3728 490.665,-19.418"/>
</g>
<!-- 20 -->
<g id="node21" class="node"><title>20</title>
<path fill="none" stroke="#567bd8" stroke-width="2" d="M494.5,-324C494.5,-324 441.5,-324 441.5,-324 435.5,-324 429.5,-318 429.5,-312 429.5,-312 429.5,-300 429.5,-300 429.5,-294 435.5,-288 441.5,-288 441.5,-288 494.5,-288 494.5,-288 500.5,-288 506.5,-294 506.5,-300 506.5,-300 506.5,-312 506.5,-312 506.5,-318 500.5,-324 494.5,-324"/>
<text text-anchor="middle" x="468" y="-303.5" font-family="sans" font-size="10.00">gene_merge</text>
</g>
<!-- 2&#45;&gt;20 -->
<g id="edge42" class="edge"><title>2&#45;&gt;20</title>
<path fill="none" stroke="grey" stroke-width="2" d="M652.042,-366.369C615.93,-354.719 557.652,-335.92 516.361,-322.6"/>
<polygon fill="grey" stroke="grey" stroke-width="2" points="517.369,-319.248 506.778,-319.509 515.22,-325.91 517.369,-319.248"/>
</g>
<!-- 3 -->
<g id="node4" class="node"><title>3</title>
<path fill="none" stroke="#56d892" stroke-width="2" d="M554,-108C554,-108 512,-108 512,-108 506,-108 500,-102 500,-96 500,-96 500,-84 500,-84 500,-78 506,-72 512,-72 512,-72 554,-72 554,-72 560,-72 566,-78 566,-84 566,-84 566,-96 566,-96 566,-102 560,-108 554,-108"/>
<text text-anchor="middle" x="533" y="-87.5" font-family="sans" font-size="10.00">alignment</text>
</g>
<!-- 3&#45;&gt;0 -->
<g id="edge3" class="edge"><title>3&#45;&gt;0</title>
<path fill="none" stroke="grey" stroke-width="2" d="M513.225,-71.6966C503.246,-62.9655 490.989,-52.2405 480.143,-42.7503"/>
<polygon fill="grey" stroke="grey" stroke-width="2" points="482.378,-40.0554 472.548,-36.1043 477.769,-45.3234 482.378,-40.0554"/>
</g>
<!-- 4 -->
<g id="node5" class="node"><title>4</title>
<path fill="none" stroke="#68d856" stroke-width="2" d="M724,-540C724,-540 686,-540 686,-540 680,-540 674,-534 674,-528 674,-528 674,-516 674,-516 674,-510 680,-504 686,-504 686,-504 724,-504 724,-504 730,-504 736,-510 736,-516 736,-516 736,-528 736,-528 736,-534 730,-540 724,-540"/>
<text text-anchor="middle" x="705" y="-519.5" font-family="sans" font-size="10.00">trimming</text>
</g>
<!-- 4&#45;&gt;0 -->
<g id="edge4" class="edge"><title>4&#45;&gt;0</title>
<path fill="none" stroke="grey" stroke-width="2" d="M722.142,-503.894C745.376,-478.802 784,-429.498 784,-379 784,-379 784,-379 784,-161 784,-116.676 774.474,-98.575 739,-72 700.253,-42.9735 559.105,-27.6958 490.688,-21.855"/>
<polygon fill="grey" stroke="grey" stroke-width="2" points="490.614,-18.3369 480.359,-20.9979 490.035,-25.3129 490.614,-18.3369"/>
</g>
<!-- 4&#45;&gt;3 -->
<g id="edge24" class="edge"><title>4&#45;&gt;3</title>
<path fill="none" stroke="grey" stroke-width="2" d="M689.42,-503.85C681.023,-493.929 670.981,-480.889 664,-468 597.55,-345.324 554.589,-182.402 539.276,-118.434"/>
<polygon fill="grey" stroke="grey" stroke-width="2" points="542.6,-117.281 536.897,-108.352 535.787,-118.889 542.6,-117.281"/>
</g>
<!-- 16 -->
<g id="node17" class="node"><title>16</title>
<path fill="none" stroke="#56a9d8" stroke-width="2" d="M725,-468C725,-468 685,-468 685,-468 679,-468 673,-462 673,-456 673,-456 673,-444 673,-444 673,-438 679,-432 685,-432 685,-432 725,-432 725,-432 731,-432 737,-438 737,-444 737,-444 737,-456 737,-456 737,-462 731,-468 725,-468"/>
<text text-anchor="middle" x="705" y="-447.5" font-family="sans" font-size="10.00">assembly</text>
</g>
<!-- 4&#45;&gt;16 -->
<g id="edge38" class="edge"><title>4&#45;&gt;16</title>
<path fill="none" stroke="grey" stroke-width="2" d="M705,-503.697C705,-495.983 705,-486.712 705,-478.112"/>
<polygon fill="grey" stroke="grey" stroke-width="2" points="708.5,-478.104 705,-468.104 701.5,-478.104 708.5,-478.104"/>
</g>
<!-- 5 -->
<g id="node6" class="node"><title>5</title>
<path fill="none" stroke="#68d856" stroke-width="2" d="M174,-540C174,-540 136,-540 136,-540 130,-540 124,-534 124,-528 124,-528 124,-516 124,-516 124,-510 130,-504 136,-504 136,-504 174,-504 174,-504 180,-504 186,-510 186,-516 186,-516 186,-528 186,-528 186,-534 180,-540 174,-540"/>
<text text-anchor="middle" x="155" y="-519.5" font-family="sans" font-size="10.00">trimming</text>
</g>
<!-- 5&#45;&gt;0 -->
<g id="edge5" class="edge"><title>5&#45;&gt;0</title>
<path fill="none" stroke="grey" stroke-width="2" d="M137.858,-503.894C114.624,-478.802 76,-429.498 76,-379 76,-379 76,-379 76,-161 76,-117.449 82.2712,-98.2793 117,-72 163.494,-36.8178 338.17,-24.3773 415.623,-20.5276"/>
<polygon fill="grey" stroke="grey" stroke-width="2" points="416.06,-24.0108 425.883,-20.0399 415.728,-17.0187 416.06,-24.0108"/>
</g>
<!-- 14 -->
<g id="node15" class="node"><title>14</title>
<path fill="none" stroke="#56d892" stroke-width="2" d="M272,-108C272,-108 230,-108 230,-108 224,-108 218,-102 218,-96 218,-96 218,-84 218,-84 218,-78 224,-72 230,-72 230,-72 272,-72 272,-72 278,-72 284,-78 284,-84 284,-84 284,-96 284,-96 284,-102 278,-108 272,-108"/>
<text text-anchor="middle" x="251" y="-87.5" font-family="sans" font-size="10.00">alignment</text>
</g>
<!-- 5&#45;&gt;14 -->
<g id="edge36" class="edge"><title>5&#45;&gt;14</title>
<path fill="none" stroke="grey" stroke-width="2" d="M183.807,-503.852C219.025,-480.454 274,-434.967 274,-379 274,-379 274,-379 274,-233 274,-192.696 264.86,-146.776 258.103,-118.337"/>
<polygon fill="grey" stroke="grey" stroke-width="2" points="261.433,-117.222 255.654,-108.342 254.635,-118.888 261.433,-117.222"/>
</g>
<!-- 19 -->
<g id="node20" class="node"><title>19</title>
<path fill="none" stroke="#56a9d8" stroke-width="2" d="M175,-468C175,-468 135,-468 135,-468 129,-468 123,-462 123,-456 123,-456 123,-444 123,-444 123,-438 129,-432 135,-432 135,-432 175,-432 175,-432 181,-432 187,-438 187,-444 187,-444 187,-456 187,-456 187,-462 181,-468 175,-468"/>
<text text-anchor="middle" x="155" y="-447.5" font-family="sans" font-size="10.00">assembly</text>
</g>
<!-- 5&#45;&gt;19 -->
<g id="edge41" class="edge"><title>5&#45;&gt;19</title>
<path fill="none" stroke="grey" stroke-width="2" d="M155,-503.697C155,-495.983 155,-486.712 155,-478.112"/>
<polygon fill="grey" stroke="grey" stroke-width="2" points="158.5,-478.104 155,-468.104 151.5,-478.104 158.5,-478.104"/>
</g>
<!-- 6 -->
<g id="node7" class="node"><title>6</title>
<path fill="none" stroke="#56d0d8" stroke-width="2" stroke-dasharray="5,2" d="M199.5,-612C199.5,-612 110.5,-612 110.5,-612 104.5,-612 98.5,-606 98.5,-600 98.5,-600 98.5,-588 98.5,-588 98.5,-582 104.5,-576 110.5,-576 110.5,-576 199.5,-576 199.5,-576 205.5,-576 211.5,-582 211.5,-588 211.5,-588 211.5,-600 211.5,-600 211.5,-606 205.5,-612 199.5,-612"/>
<text text-anchor="middle" x="155" y="-597" font-family="sans" font-size="10.00">genome_simulation</text>
<text text-anchor="middle" x="155" y="-586" font-family="sans" font-size="10.00">sample: s2</text>
</g>
<!-- 6&#45;&gt;0 -->
<g id="edge6" class="edge"><title>6&#45;&gt;0</title>
<path fill="none" stroke="grey" stroke-width="2" d="M126.976,-575.936C92.3622,-552.469 38,-506.741 38,-451 38,-451 38,-451 38,-161 38,-117.07 45.5321,-97.9211 81,-72 133.845,-33.3793 332.413,-22.7399 415.782,-19.9449"/>
<polygon fill="grey" stroke="grey" stroke-width="2" points="415.942,-23.4417 425.827,-19.6278 415.721,-16.4452 415.942,-23.4417"/>
</g>
<!-- 6&#45;&gt;5 -->
<g id="edge26" class="edge"><title>6&#45;&gt;5</title>
<path fill="none" stroke="grey" stroke-width="2" d="M155,-575.697C155,-567.983 155,-558.712 155,-550.112"/>
<polygon fill="grey" stroke="grey" stroke-width="2" points="158.5,-550.104 155,-540.104 151.5,-550.104 158.5,-550.104"/>
</g>
<!-- 7 -->
<g id="node8" class="node"><title>7</title>
<path fill="none" stroke="#68d856" stroke-width="2" d="M413,-540C413,-540 375,-540 375,-540 369,-540 363,-534 363,-528 363,-528 363,-516 363,-516 363,-510 369,-504 375,-504 375,-504 413,-504 413,-504 419,-504 425,-510 425,-516 425,-516 425,-528 425,-528 425,-534 419,-540 413,-540"/>
<text text-anchor="middle" x="394" y="-519.5" font-family="sans" font-size="10.00">trimming</text>
</g>
<!-- 7&#45;&gt;0 -->
<g id="edge7" class="edge"><title>7&#45;&gt;0</title>
<path fill="none" stroke="grey" stroke-width="2" d="M375.357,-503.716C308.911,-440.076 93.6532,-215.091 209,-72 234.525,-40.3359 353.725,-26.6152 415.561,-21.5456"/>
<polygon fill="grey" stroke="grey" stroke-width="2" points="415.992,-25.0226 425.687,-20.7508 415.444,-18.044 415.992,-25.0226"/>
</g>
<!-- 10 -->
<g id="node11" class="node"><title>10</title>
<path fill="none" stroke="#56d892" stroke-width="2" d="M394,-108C394,-108 352,-108 352,-108 346,-108 340,-102 340,-96 340,-96 340,-84 340,-84 340,-78 346,-72 352,-72 352,-72 394,-72 394,-72 400,-72 406,-78 406,-84 406,-84 406,-96 406,-96 406,-102 400,-108 394,-108"/>
<text text-anchor="middle" x="373" y="-87.5" font-family="sans" font-size="10.00">alignment</text>
</g>
<!-- 7&#45;&gt;10 -->
<g id="edge32" class="edge"><title>7&#45;&gt;10</title>
<path fill="none" stroke="grey" stroke-width="2" d="M384.883,-503.606C371.995,-477.357 350,-425.715 350,-379 350,-379 350,-379 350,-233 350,-192.696 359.14,-146.776 365.897,-118.337"/>
<polygon fill="grey" stroke="grey" stroke-width="2" points="369.365,-118.888 368.346,-108.342 362.567,-117.222 369.365,-118.888"/>
</g>
<!-- 17 -->
<g id="node18" class="node"><title>17</title>
<path fill="none" stroke="#56a9d8" stroke-width="2" d="M459,-468C459,-468 419,-468 419,-468 413,-468 407,-462 407,-456 407,-456 407,-444 407,-444 407,-438 413,-432 419,-432 419,-432 459,-432 459,-432 465,-432 471,-438 471,-444 471,-444 471,-456 471,-456 471,-462 465,-468 459,-468"/>
<text text-anchor="middle" x="439" y="-447.5" font-family="sans" font-size="10.00">assembly</text>
</g>
<!-- 7&#45;&gt;17 -->
<g id="edge39" class="edge"><title>7&#45;&gt;17</title>
<path fill="none" stroke="grey" stroke-width="2" d="M405.124,-503.697C410.355,-495.559 416.7,-485.689 422.478,-476.701"/>
<polygon fill="grey" stroke="grey" stroke-width="2" points="425.541,-478.409 428.004,-468.104 419.653,-474.623 425.541,-478.409"/>
</g>
<!-- 8 -->
<g id="node9" class="node"><title>8</title>
<path fill="none" stroke="#d8cb56" stroke-width="2" d="M459.5,-396C459.5,-396 418.5,-396 418.5,-396 412.5,-396 406.5,-390 406.5,-384 406.5,-384 406.5,-372 406.5,-372 406.5,-366 412.5,-360 418.5,-360 418.5,-360 459.5,-360 459.5,-360 465.5,-360 471.5,-366 471.5,-372 471.5,-372 471.5,-384 471.5,-384 471.5,-390 465.5,-396 459.5,-396"/>
<text text-anchor="middle" x="439" y="-375.5" font-family="sans" font-size="10.00">prediction</text>
</g>
<!-- 8&#45;&gt;0 -->
<g id="edge8" class="edge"><title>8&#45;&gt;0</title>
<path fill="none" stroke="grey" stroke-width="2" d="M422.905,-359.86C379.342,-311.335 266.614,-170.171 331,-72 349.668,-43.5371 387.284,-30.2802 415.839,-24.1548"/>
<polygon fill="grey" stroke="grey" stroke-width="2" points="416.747,-27.5443 425.898,-22.2058 415.415,-20.6721 416.747,-27.5443"/>
</g>
<!-- 8&#45;&gt;20 -->
<g id="edge44" class="edge"><title>8&#45;&gt;20</title>
<path fill="none" stroke="grey" stroke-width="2" d="M446.169,-359.697C449.435,-351.813 453.374,-342.304 457.002,-333.546"/>
<polygon fill="grey" stroke="grey" stroke-width="2" points="460.32,-334.683 460.914,-324.104 453.853,-332.003 460.32,-334.683"/>
</g>
<!-- 9 -->
<g id="node10" class="node"><title>9</title>
<path fill="none" stroke="#8fd856" stroke-width="2" stroke-dasharray="5,2" d="M540.5,-684C540.5,-684 471.5,-684 471.5,-684 465.5,-684 459.5,-678 459.5,-672 459.5,-672 459.5,-660 459.5,-660 459.5,-654 465.5,-648 471.5,-648 471.5,-648 540.5,-648 540.5,-648 546.5,-648 552.5,-654 552.5,-660 552.5,-660 552.5,-672 552.5,-672 552.5,-678 546.5,-684 540.5,-684"/>
<text text-anchor="middle" x="506" y="-663.5" font-family="sans" font-size="10.00">genome_merge</text>
</g>
<!-- 9&#45;&gt;0 -->
<g id="edge9" class="edge"><title>9&#45;&gt;0</title>
<path fill="none" stroke="grey" stroke-width="2" d="M552.581,-663.655C607.542,-660.32 700.254,-649.109 770,-612 819.663,-585.576 860,-579.255 860,-523 860,-523 860,-523 860,-161 860,-114.266 843.104,-97.5927 804,-72 752.799,-38.49 569.823,-25.0765 490.322,-20.7453"/>
<polygon fill="grey" stroke="grey" stroke-width="2" points="490.431,-17.2463 480.261,-20.2158 490.063,-24.2366 490.431,-17.2463"/>
</g>
<!-- 9&#45;&gt;6 -->
<g id="edge27" class="edge"><title>9&#45;&gt;6</title>
<path fill="none" stroke="grey" stroke-width="2" d="M459.39,-655.705C398.425,-643.546 291.213,-622.165 221.669,-608.296"/>
<polygon fill="grey" stroke="grey" stroke-width="2" points="222.183,-604.829 211.691,-606.306 220.814,-611.694 222.183,-604.829"/>
</g>
<!-- 13 -->
<g id="node14" class="node"><title>13</title>
<path fill="none" stroke="#56d0d8" stroke-width="2" stroke-dasharray="5,2" d="M550.5,-612C550.5,-612 461.5,-612 461.5,-612 455.5,-612 449.5,-606 449.5,-600 449.5,-600 449.5,-588 449.5,-588 449.5,-582 455.5,-576 461.5,-576 461.5,-576 550.5,-576 550.5,-576 556.5,-576 562.5,-582 562.5,-588 562.5,-588 562.5,-600 562.5,-600 562.5,-606 556.5,-612 550.5,-612"/>
<text text-anchor="middle" x="506" y="-597" font-family="sans" font-size="10.00">genome_simulation</text>
<text text-anchor="middle" x="506" y="-586" font-family="sans" font-size="10.00">sample: s3</text>
</g>
<!-- 9&#45;&gt;13 -->
<g id="edge35" class="edge"><title>9&#45;&gt;13</title>
<path fill="none" stroke="grey" stroke-width="2" d="M506,-647.697C506,-639.983 506,-630.712 506,-622.112"/>
<polygon fill="grey" stroke="grey" stroke-width="2" points="509.5,-622.104 506,-612.104 502.5,-622.104 509.5,-622.104"/>
</g>
<!-- 18 -->
<g id="node19" class="node"><title>18</title>
<path fill="none" stroke="#56d0d8" stroke-width="2" stroke-dasharray="5,2" d="M749.5,-612C749.5,-612 660.5,-612 660.5,-612 654.5,-612 648.5,-606 648.5,-600 648.5,-600 648.5,-588 648.5,-588 648.5,-582 654.5,-576 660.5,-576 660.5,-576 749.5,-576 749.5,-576 755.5,-576 761.5,-582 761.5,-588 761.5,-588 761.5,-600 761.5,-600 761.5,-606 755.5,-612 749.5,-612"/>
<text text-anchor="middle" x="705" y="-597" font-family="sans" font-size="10.00">genome_simulation</text>
<text text-anchor="middle" x="705" y="-586" font-family="sans" font-size="10.00">sample: s1</text>
</g>
<!-- 9&#45;&gt;18 -->
<g id="edge40" class="edge"><title>9&#45;&gt;18</title>
<path fill="none" stroke="grey" stroke-width="2" d="M552.657,-648.588C580.852,-638.67 617.024,-625.946 647.045,-615.386"/>
<polygon fill="grey" stroke="grey" stroke-width="2" points="648.286,-618.66 656.558,-612.04 645.963,-612.057 648.286,-618.66"/>
</g>
<!-- 10&#45;&gt;0 -->
<g id="edge10" class="edge"><title>10&#45;&gt;0</title>
<path fill="none" stroke="grey" stroke-width="2" d="M392.775,-71.6966C402.754,-62.9655 415.011,-52.2405 425.857,-42.7503"/>
<polygon fill="grey" stroke="grey" stroke-width="2" points="428.231,-45.3234 433.452,-36.1043 423.622,-40.0554 428.231,-45.3234"/>
</g>
<!-- 11 -->
<g id="node12" class="node"><title>11</title>
<path fill="none" stroke="#d8cb56" stroke-width="2" d="M195.5,-396C195.5,-396 154.5,-396 154.5,-396 148.5,-396 142.5,-390 142.5,-384 142.5,-384 142.5,-372 142.5,-372 142.5,-366 148.5,-360 154.5,-360 154.5,-360 195.5,-360 195.5,-360 201.5,-360 207.5,-366 207.5,-372 207.5,-372 207.5,-384 207.5,-384 207.5,-390 201.5,-396 195.5,-396"/>
<text text-anchor="middle" x="175" y="-375.5" font-family="sans" font-size="10.00">prediction</text>
</g>
<!-- 11&#45;&gt;0 -->
<g id="edge11" class="edge"><title>11&#45;&gt;0</title>
<path fill="none" stroke="grey" stroke-width="2" d="M170.346,-359.658C163.625,-333.049 152,-280.453 152,-235 152,-235 152,-235 152,-161 152,-120.031 145.974,-99.8725 176,-72 210.318,-40.1433 347.981,-26.3039 415.407,-21.3419"/>
<polygon fill="grey" stroke="grey" stroke-width="2" points="415.87,-24.8179 425.598,-20.6203 415.376,-17.8353 415.87,-24.8179"/>
</g>
<!-- 11&#45;&gt;20 -->
<g id="edge43" class="edge"><title>11&#45;&gt;20</title>
<path fill="none" stroke="grey" stroke-width="2" d="M207.758,-369.174C259.283,-356.864 359.55,-332.909 419.465,-318.595"/>
<polygon fill="grey" stroke="grey" stroke-width="2" points="420.528,-321.94 429.441,-316.212 418.901,-315.132 420.528,-321.94"/>
</g>
<!-- 12&#45;&gt;0 -->
<g id="edge12" class="edge"><title>12&#45;&gt;0</title>
<path fill="none" stroke="grey" stroke-width="2" d="M425.739,-143.871C431.046,-119.564 440.814,-74.8187 447.103,-46.0132"/>
<polygon fill="grey" stroke="grey" stroke-width="2" points="450.534,-46.7057 449.247,-36.1893 443.695,-45.2126 450.534,-46.7057"/>
</g>
<!-- 12&#45;&gt;3 -->
<g id="edge23" class="edge"><title>12&#45;&gt;3</title>
<path fill="none" stroke="grey" stroke-width="2" d="M449.154,-143.876C463.533,-134.808 481.381,-123.552 496.91,-113.759"/>
<polygon fill="grey" stroke="grey" stroke-width="2" points="499.15,-116.484 505.742,-108.19 495.416,-110.564 499.15,-116.484"/>
</g>
<!-- 12&#45;&gt;10 -->
<g id="edge31" class="edge"><title>12&#45;&gt;10</title>
<path fill="none" stroke="grey" stroke-width="2" d="M409.888,-143.697C404.132,-135.474 397.138,-125.483 390.794,-116.421"/>
<polygon fill="grey" stroke="grey" stroke-width="2" points="393.575,-114.29 384.973,-108.104 387.84,-118.304 393.575,-114.29"/>
</g>
<!-- 12&#45;&gt;14 -->
<g id="edge37" class="edge"><title>12&#45;&gt;14</title>
<path fill="none" stroke="grey" stroke-width="2" d="M380.169,-143.876C353.838,-133.098 319.955,-119.227 293.499,-108.397"/>
<polygon fill="grey" stroke="grey" stroke-width="2" points="294.696,-105.105 284.115,-104.556 292.044,-111.584 294.696,-105.105"/>
</g>
<!-- 13&#45;&gt;0 -->
<g id="edge13" class="edge"><title>13&#45;&gt;0</title>
<path fill="none" stroke="grey" stroke-width="2" d="M523.359,-575.935C546.887,-550.894 586,-501.65 586,-451 586,-451 586,-451 586,-377 586,-240.7 698.3,-182.134 618,-72 588.998,-32.2223 529.668,-21.641 490.623,-19.1842"/>
<polygon fill="grey" stroke="grey" stroke-width="2" points="490.346,-15.6672 480.191,-18.6892 490.014,-22.6593 490.346,-15.6672"/>
</g>
<!-- 13&#45;&gt;7 -->
<g id="edge28" class="edge"><title>13&#45;&gt;7</title>
<path fill="none" stroke="grey" stroke-width="2" d="M478.602,-575.876C464.093,-566.808 446.084,-555.552 430.415,-545.759"/>
<polygon fill="grey" stroke="grey" stroke-width="2" points="431.839,-542.522 421.504,-540.19 428.129,-548.458 431.839,-542.522"/>
</g>
<!-- 14&#45;&gt;0 -->
<g id="edge14" class="edge"><title>14&#45;&gt;0</title>
<path fill="none" stroke="grey" stroke-width="2" d="M284.098,-76.9459C288.761,-75.2716 293.498,-73.5837 298,-72 338.306,-57.8208 384.688,-42.03 416.133,-31.4029"/>
<polygon fill="grey" stroke="grey" stroke-width="2" points="417.435,-34.6573 425.79,-28.1426 415.196,-28.0251 417.435,-34.6573"/>
</g>
<!-- 15 -->
<g id="node16" class="node"><title>15</title>
<path fill="none" stroke="#56d86b" stroke-width="2" stroke-dasharray="5,2" d="M295.5,-756C295.5,-756 210.5,-756 210.5,-756 204.5,-756 198.5,-750 198.5,-744 198.5,-744 198.5,-732 198.5,-732 198.5,-726 204.5,-720 210.5,-720 210.5,-720 295.5,-720 295.5,-720 301.5,-720 307.5,-726 307.5,-732 307.5,-732 307.5,-744 307.5,-744 307.5,-750 301.5,-756 295.5,-756"/>
<text text-anchor="middle" x="253" y="-735.5" font-family="sans" font-size="10.00">genome_download</text>
</g>
<!-- 15&#45;&gt;0 -->
<g id="edge15" class="edge"><title>15&#45;&gt;0</title>
<path fill="none" stroke="grey" stroke-width="2" d="M198.414,-730.709C124.039,-718.755 0,-685.287 0,-595 0,-595 0,-595 0,-161 0,-116.874 8.09385,-97.6478 44,-72 103.207,-29.7085 326.188,-21.1628 415.586,-19.4366"/>
<polygon fill="grey" stroke="grey" stroke-width="2" points="415.869,-22.9323 425.806,-19.2581 415.747,-15.9334 415.869,-22.9323"/>
</g>
<!-- 15&#45;&gt;9 -->
<g id="edge30" class="edge"><title>15&#45;&gt;9</title>
<path fill="none" stroke="grey" stroke-width="2" d="M307.586,-721.897C349.41,-710.325 406.939,-694.408 449.284,-682.692"/>
<polygon fill="grey" stroke="grey" stroke-width="2" points="450.455,-686 459.16,-679.96 448.588,-679.253 450.455,-686"/>
</g>
<!-- 16&#45;&gt;0 -->
<g id="edge16" class="edge"><title>16&#45;&gt;0</title>
<path fill="none" stroke="grey" stroke-width="2" d="M713.297,-431.971C725.277,-405.77 746,-353.701 746,-307 746,-307 746,-307 746,-161 746,-118.331 742.775,-99.3213 710,-72 677.086,-44.5627 553.77,-28.8302 490.685,-22.4159"/>
<polygon fill="grey" stroke="grey" stroke-width="2" points="490.667,-18.897 480.371,-21.3957 489.978,-25.863 490.667,-18.897"/>
</g>
<!-- 16&#45;&gt;2 -->
<g id="edge22" class="edge"><title>16&#45;&gt;2</title>
<path fill="none" stroke="grey" stroke-width="2" d="M700.056,-431.697C697.828,-423.898 695.145,-414.509 692.665,-405.829"/>
<polygon fill="grey" stroke="grey" stroke-width="2" points="696,-404.758 689.887,-396.104 689.269,-406.681 696,-404.758"/>
</g>
<!-- 17&#45;&gt;0 -->
<g id="edge17" class="edge"><title>17&#45;&gt;0</title>
<path fill="none" stroke="grey" stroke-width="2" d="M453.335,-431.899C486.231,-391.384 566.426,-285.049 594,-180 606.189,-133.565 623.421,-111.407 596,-72 572.29,-37.9269 523.987,-25.7098 490.106,-21.358"/>
<polygon fill="grey" stroke="grey" stroke-width="2" points="490.424,-17.8718 480.098,-20.2445 489.65,-24.8289 490.424,-17.8718"/>
</g>
<!-- 17&#45;&gt;8 -->
<g id="edge29" class="edge"><title>17&#45;&gt;8</title>
<path fill="none" stroke="grey" stroke-width="2" d="M439,-431.697C439,-423.983 439,-414.712 439,-406.112"/>
<polygon fill="grey" stroke="grey" stroke-width="2" points="442.5,-406.104 439,-396.104 435.5,-406.104 442.5,-406.104"/>
</g>
<!-- 18&#45;&gt;0 -->
<g id="edge18" class="edge"><title>18&#45;&gt;0</title>
<path fill="none" stroke="grey" stroke-width="2" d="M733.024,-575.936C767.638,-552.469 822,-506.741 822,-451 822,-451 822,-451 822,-161 822,-115.41 808.425,-98.0344 771,-72 726.113,-40.7746 564.497,-26.3397 490.486,-21.2549"/>
<polygon fill="grey" stroke="grey" stroke-width="2" points="490.437,-17.7439 480.227,-20.5716 489.972,-24.7285 490.437,-17.7439"/>
</g>
<!-- 18&#45;&gt;4 -->
<g id="edge25" class="edge"><title>18&#45;&gt;4</title>
<path fill="none" stroke="grey" stroke-width="2" d="M705,-575.697C705,-567.983 705,-558.712 705,-550.112"/>
<polygon fill="grey" stroke="grey" stroke-width="2" points="708.5,-550.104 705,-540.104 701.5,-550.104 708.5,-550.104"/>
</g>
<!-- 19&#45;&gt;0 -->
<g id="edge19" class="edge"><title>19&#45;&gt;0</title>
<path fill="none" stroke="grey" stroke-width="2" d="M146.703,-431.971C134.723,-405.77 114,-353.701 114,-307 114,-307 114,-307 114,-161 114,-118.331 116.816,-98.8231 150,-72 190.294,-39.4298 343.582,-25.7847 415.424,-21.0875"/>
<polygon fill="grey" stroke="grey" stroke-width="2" points="416.057,-24.5546 425.817,-20.4335 415.617,-17.5684 416.057,-24.5546"/>
</g>
<!-- 19&#45;&gt;11 -->
<g id="edge33" class="edge"><title>19&#45;&gt;11</title>
<path fill="none" stroke="grey" stroke-width="2" d="M159.944,-431.697C162.172,-423.898 164.855,-414.509 167.335,-405.829"/>
<polygon fill="grey" stroke="grey" stroke-width="2" points="170.731,-406.681 170.113,-396.104 164,-404.758 170.731,-406.681"/>
</g>
<!-- 20&#45;&gt;0 -->
<g id="edge20" class="edge"><title>20&#45;&gt;0</title>
<path fill="none" stroke="grey" stroke-width="2" d="M487.489,-287.717C530.122,-247.785 624.068,-146.815 575,-72 556.332,-43.5371 518.716,-30.2802 490.161,-24.1548"/>
<polygon fill="grey" stroke="grey" stroke-width="2" points="490.585,-20.6721 480.102,-22.2058 489.253,-27.5443 490.585,-20.6721"/>
</g>
<!-- 20&#45;&gt;1 -->
<g id="edge21" class="edge"><title>20&#45;&gt;1</title>
<path fill="none" stroke="grey" stroke-width="2" d="M468,-287.697C468,-279.983 468,-270.712 468,-262.112"/>
<polygon fill="grey" stroke="grey" stroke-width="2" points="471.5,-262.104 468,-252.104 464.5,-262.104 471.5,-262.104"/>
</g>
</g>
</svg>
